<?xml version="1.0" encoding="UTF-8" standalone="no"?>
<!-- Created with Inkscape (http://www.inkscape.org/) -->

<svg
   xmlns:dc="http://purl.org/dc/elements/1.1/"
   xmlns:cc="http://creativecommons.org/ns#"
   xmlns:rdf="http://www.w3.org/1999/02/22-rdf-syntax-ns#"
   xmlns:svg="http://www.w3.org/2000/svg"
   xmlns="http://www.w3.org/2000/svg"
   xmlns:sodipodi="http://sodipodi.sourceforge.net/DTD/sodipodi-0.dtd"
   xmlns:inkscape="http://www.inkscape.org/namespaces/inkscape"
   id="svg2"
   version="1.1"
   inkscape:version="0.91 r13725"
   width="626"
   height="626"
   viewBox="0 0 626 626"
   sodipodi:docname="inicio.svg">
  <metadata
     id="metadata8">
    <rdf:RDF>
      <cc:Work
         rdf:about="">
        <dc:format>image/svg+xml</dc:format>
        <dc:type
           rdf:resource="http://purl.org/dc/dcmitype/StillImage" />
        <dc:title />
      </cc:Work>
    </rdf:RDF>
  </metadata>
  <defs
     id="defs6" />
  <sodipodi:namedview
     pagecolor="#ffffff"
     bordercolor="#666666"
     borderopacity="1"
     objecttolerance="10"
     gridtolerance="10"
     guidetolerance="10"
     inkscape:pageopacity="0"
     inkscape:pageshadow="2"
     inkscape:window-width="1920"
     inkscape:window-height="1027"
     id="namedview4"
     showgrid="false"
     inkscape:zoom="0.533154"
     inkscape:cx="-14.963718"
     inkscape:cy="174.11669"
     inkscape:window-x="-8"
     inkscape:window-y="-8"
     inkscape:window-maximized="1"
     inkscape:current-layer="svg2" />
  <path
     style="fill:#000000"
     d="M 284,624.50857 C 225.15162,618.03519 177.394,600.13784 130.5431,567 105.97178,549.6206 76.379395,520.02822 59,495.4569 30.486439,455.14389 12.04409,410.83305 4.4952049,364.5 -1.3254157,328.77457 -1.3208548,297.83009 4.5103725,261.59238 11.932964,215.46526 30.473776,170.87402 59,130.5431 76.502257,105.79807 105.79807,76.502257 130.5431,59 170.87402,30.473776 215.46526,11.932964 261.59238,4.5103725 297.77664,-1.3122537 328.20859,-1.3269397 364.5,4.4607108 409.95759,11.710157 455.28947,30.589412 495.4569,59 c 22.23259,15.7252 50.47549,43.28765 67.07728,65.46118 69.84299,93.28311 82.84475,213.94191 34.4219,319.44186 C 557.05684,530.83242 477.82811,595.64119 384.82987,617.42141 351.98301,625.11415 313.8631,627.79354 284,624.50857 Z m 63.67299,-100.5163 c 45.5943,-7.95072 84.11929,-27.83037 116.3041,-60.01518 32.18066,-32.18065 51.62044,-69.82731 60.14582,-116.47709 3.14709,-17.22045 3.14732,-51.52377 4.7e-4,-69 C 515.78749,232.20617 496.19646,194.28946 463.9535,162.0465 431.69082,129.78382 394.19598,110.41092 347.5,101.87709 331.58186,98.967998 295.81906,98.705031 281,101.3881 c -48.89051,8.85191 -86.14363,27.84853 -118.9535,60.6584 -32.24887,32.24887 -51.57076,69.63203 -60.19028,116.4535 -3.182428,17.28707 -3.172075,51.52865 0.0209,69 8.54554,46.76006 27.86246,84.14655 60.16941,116.4535 35.33539,35.33539 82.04741,57.56158 130.4535,62.07147 14.27249,1.32974 41.68161,0.31992 55.17299,-2.0327 z M 231.01391,480.24845 C 229.09656,479.2868 226.9657,477.375 226.27865,476 c -0.9707,-1.9427 -1.25245,-22.50698 -1.26391,-92.25 L 225,294 197.95034,294 C 166.52556,294 165,293.68109 165,287.11182 c 0,-2.74002 0.84029,-4.89417 2.93951,-7.5357 1.61673,-2.03439 31.54308,-32.27217 66.50299,-67.19506 68.85684,-68.78391 67.4177,-67.54284 78.44139,-67.6453 11.10408,-0.10321 9.49586,-1.48747 78.88329,67.89794 35.05305,35.05204 64.97032,65.2858 66.48282,67.18614 1.92182,2.41462 2.75,4.61065 2.75,7.29198 C 461,293.68109 459.47444,294 428.04966,294 L 401,294 l -0.0147,89.75 c -0.0115,69.74302 -0.29321,90.3073 -1.26391,92.25 -0.68705,1.375 -2.81791,3.2868 -4.73526,4.24845 -3.23027,1.62014 -9.24664,1.74844 -81.98609,1.74844 -72.73945,0 -78.75582,-0.1283 -81.98609,-1.74844 z"
     id="path3340"
     inkscape:connector-curvature="0" />
</svg>
